<svg width="22" height="16" viewBox="0 0 22 16" fill="none" xmlns="http://www.w3.org/2000/svg">
<path d="M1.57143 0H11C11.4168 0 11.8165 0.168571 12.1112 0.468629C12.4059 0.768688 12.5714 1.17565 12.5714 1.6C12.5714 2.02435 12.4059 2.43131 12.1112 2.73137C11.8165 3.03143 11.4168 3.2 11 3.2H1.57143C1.15466 3.2 0.754961 3.03143 0.460261 2.73137C0.165561 2.43131 0 2.02435 0 1.6C0 1.17565 0.165561 0.768688 0.460261 0.468629C0.754961 0.168571 1.15466 0 1.57143 0ZM1.57143 12.8H14.1429C14.5596 12.8 14.9593 12.9686 15.254 13.2686C15.5487 13.5687 15.7143 13.9757 15.7143 14.4C15.7143 14.8243 15.5487 15.2313 15.254 15.5314C14.9593 15.8314 14.5596 16 14.1429 16H1.57143C1.15466 16 0.754961 15.8314 0.460261 15.5314C0.165561 15.2313 0 14.8243 0 14.4C0 13.9757 0.165561 13.5687 0.460261 13.2686C0.754961 12.9686 1.15466 12.8 1.57143 12.8ZM1.57143 6.4H20.4286C20.8453 6.4 21.245 6.56857 21.5397 6.86863C21.8344 7.16869 22 7.57565 22 8C22 8.42435 21.8344 8.83131 21.5397 9.13137C21.245 9.43143 20.8453 9.6 20.4286 9.6H1.57143C1.15466 9.6 0.754961 9.43143 0.460261 9.13137C0.165561 8.83131 0 8.42435 0 8C0 7.57565 0.165561 7.16869 0.460261 6.86863C0.754961 6.56857 1.15466 6.4 1.57143 6.4Z" fill="#1B1F1A"/>
</svg>
