<svg width="30" height="30" viewBox="0 0 30 30" fill="none" xmlns="http://www.w3.org/2000/svg">
<path d="M9 7.48438C8.60218 7.48438 8.22064 7.64241 7.93934 7.92372C7.65804 8.20502 7.5 8.58655 7.5 8.98437C7.5 9.3822 7.65804 9.76373 7.93934 10.045C8.22064 10.3263 8.60218 10.4844 9 10.4844H21C21.3978 10.4844 21.7794 10.3263 22.0607 10.045C22.342 9.76373 22.5 9.3822 22.5 8.98437C22.5 8.58655 22.342 8.20502 22.0607 7.92372C21.7794 7.64241 21.3978 7.48438 21 7.48438H9Z" fill="#5DCC26"/>
<path d="M7.5 14.9922C7.5 14.5944 7.65804 14.2128 7.93934 13.9315C8.22064 13.6502 8.60218 13.4922 9 13.4922H21C21.3978 13.4922 21.7794 13.6502 22.0607 13.9315C22.342 14.2128 22.5 14.5944 22.5 14.9922C22.5 15.39 22.342 15.7715 22.0607 16.0528C21.7794 16.3342 21.3978 16.4922 21 16.4922H9C8.60218 16.4922 8.22064 16.3342 7.93934 16.0528C7.65804 15.7715 7.5 15.39 7.5 14.9922Z" fill="#5DCC26"/>
<path d="M9 19.5234C8.60218 19.5234 8.22064 19.6815 7.93934 19.9628C7.65804 20.2441 7.5 20.6256 7.5 21.0234C7.5 21.4213 7.65804 21.8028 7.93934 22.0841C8.22064 22.3654 8.60218 22.5234 9 22.5234H21C21.3978 22.5234 21.7794 22.3654 22.0607 22.0841C22.342 21.8028 22.5 21.4213 22.5 21.0234C22.5 20.6256 22.342 20.2441 22.0607 19.9628C21.7794 19.6815 21.3978 19.5234 21 19.5234H9Z" fill="#5DCC26"/>
<path fill-rule="evenodd" clip-rule="evenodd" d="M30 15C30 23.2845 23.2845 30 15 30C6.7155 30 0 23.2845 0 15C0 6.7155 6.7155 0 15 0C23.2845 0 30 6.7155 30 15ZM27 15C27 18.1826 25.7357 21.2348 23.4853 23.4853C21.2348 25.7357 18.1826 27 15 27C11.8174 27 8.76515 25.7357 6.51472 23.4853C4.26428 21.2348 3 18.1826 3 15C3 11.8174 4.26428 8.76515 6.51472 6.51472C8.76515 4.26428 11.8174 3 15 3C18.1826 3 21.2348 4.26428 23.4853 6.51472C25.7357 8.76515 27 11.8174 27 15Z" fill="#5DCC26"/>
</svg>
